<svg height="178.14285" width="106.71429" xmlns="http://www.w3.org/2000/svg"><g transform="translate(-215.92857 -22.576468)"><path d="m314.74258 114.86883c0 40.7261-20.35174 73.74114-45.45687 73.74114-25.10512 0-45.45686-33.01504-45.45686-73.74114 0-40.726109 20.70888-65.883998 45.814-65.883998 25.10513 0 45.09973 25.157889 45.09973 65.883998z" fill="#b9b9b9"/><path d="m270.0055 48.982143c19.9545.35493 38.81849 18.341245 43.95019 53.919097-14.60178 5.15827-30.13123 7.90028-44.01269 7.84629l.0625-69.046637z" fill="#373460"/><g fill="none" stroke="#000"><path d="m314.74258 114.86883c0 40.7261-20.35174 73.74114-45.45687 73.74114-25.10512 0-45.45686-33.01504-45.45686-73.74114 0-40.726109 20.70888-65.883998 45.814-65.883998 25.10513 0 45.09973 25.157889 45.09973 65.883998z" stroke-linejoin="round" stroke-width="2"/><path d="m313.98499 103.67357c-27.56745 10.12207-59.64289 10.75051-89.90358 0" stroke-width="2"/><path d="m269.28571 49.194033v61.831167" stroke-width="2"/><path d="m268.79945 48.657687c-11.8903-19.57115 24.52422-25.522431 26.07142-40.2240771" stroke-width="3"/></g></g></svg>