<svg height="17.837mm" viewBox="0 0 17.836929 17.836931" width="17.837mm" xmlns="http://www.w3.org/2000/svg"><g transform="translate(-88.262 -140.25)"><path d="m-141.75 97.18a7.4185 7.3767 0 0 1 -3.7092 6.3884 7.4185 7.3767 0 0 1 -7.4185 0 7.4185 7.3767 0 0 1 -3.7092-6.3884h7.4185z" transform="rotate(-90)"/><path d="m97.18 141.75v14.837" fill="none" stroke="#000"/><path d="m156.59-97.18a7.4185 7.3767 0 0 1 -3.7092 6.3884 7.4185 7.3767 0 0 1 -7.4185-.000001 7.4185 7.3767 0 0 1 -3.7092-6.3884h7.4185z" fill="#ed4c5c" transform="rotate(90)"/><circle cx="97.18" cy="149.17" fill="none" r="7.4185" stroke="#000"/></g></svg>