<svg height="80" width="80" xmlns="http://www.w3.org/2000/svg" xmlns:xlink="http://www.w3.org/1999/xlink"><linearGradient id="a" gradientUnits="userSpaceOnUse" x1="38.50523275002" x2="38.50523275002" y1="1028.09455485502" y2="956.19514134578"><stop offset="0" stop-color="#f26d35"/><stop offset="1" stop-color="#f79734"/></linearGradient><mask id="b" maskUnits="userSpaceOnUse"><rect fill="#d035c0" fill-rule="evenodd" height="78.571426" ry="9.642857" width="78.571426" x="-1.322032" y="974.08386"/></mask><filter id="c" height="1.178521" width="1.389353" x="-.194676" y="-.089261"><feGaussianBlur stdDeviation="2.5452315"/></filter><linearGradient id="d" gradientUnits="userSpaceOnUse" x1="38.50523375002" x2="38.50523375002" y1="-16.95991267629" y2="75.39149766851"><stop offset="0" stop-color="#fff" stop-opacity=".421875"/><stop offset="1" stop-color="#c15317" stop-opacity="0"/></linearGradient><rect fill="#fff" fill-rule="evenodd" height="70.254936" ry="8.622197" width="70.254936" x="4.634043" y="5.028444"/><rect fill="url(#a)" fill-rule="evenodd" height="70.254936" ry="8.622197" transform="translate(0 -972.3622)" width="70.254936" x="4.634043" y="977.39069"/><g><rect fill="url(#d)" fill-rule="evenodd" height="70.254936" ry="8.622197" stroke="#ffcba9" stroke-opacity=".775862" stroke-width=".919923" width="70.254936" x="4.634043" y="5.028444"/><g transform="matrix(.69393668075 0 0 -.69393668075 34.6895313812 30.92229748328)"><path d="m0 0h-8.38v1.49h8.38v6.424c0 11.639 5.307 23.836 14.618 23.836 5.773 0 8.38-4.19 8.38-8.473 0-2.235-1.583-4.376-4.469-4.376-2.794 0-3.911 1.955-3.911 3.724 0 4.284 5.028 3.166 5.028 5.122 0 1.396-2.142 2.513-4.655 2.513-4.47 0-7.17-2.513-7.17-12.849v-15.921h10.615v-1.49h-10.615v-35.196h8.473v-1.489h-24.674v1.489h8.38z" fill="#fff"/><g filter="url(#c)" opacity=".2"><path d="m0 0h-8.38v1.49h8.38v6.424c0 11.639 5.307 23.836 14.618 23.836 5.773 0 8.38-4.19 8.38-8.473 0-2.235-1.583-4.376-4.469-4.376-2.794 0-3.911 1.955-3.911 3.724 0 4.284 5.028 3.166 5.028 5.122 0 1.396-2.142 2.513-4.655 2.513-4.47 0-7.17-2.513-7.17-12.849v-15.921h10.615v-1.49h-10.615v-35.196h8.473v-1.489h-24.674v1.489h8.38z" fill="#fff"/></g></g></g><a fill="#fff" mask="url(#b)" transform="matrix(1.6352931 0 0 1.6352931 -.633479 -1619.4071)"><text style="font-size:4;font-weight:500;letter-spacing:0;word-spacing:0;fill:#fff;font-family:TlwgTypewriter" x="4.101525" xml:space="preserve" y="1020.6642"><tspan font-size="6" font-weight="bold" x="4.101525" y="1020.6642">static int x = 1; static long mc1[8][8], mc2[8][8];</tspan><tspan font-size="6" font-weight="bold" x="4.101525" y="1028.1642">if (init) { for (i = 0; i &lt; 8; i++) </tspan><tspan font-size="6" font-weight="bold" x="4.101525" y="1035.6642">for (j = 0; j &lt; 8; j++) { </tspan><tspan font-size="6" font-weight="bold" x="4.101525" y="1043.1642">ftmp1 = ((j == 0) ? 0.5 / sqrt (2.0) : 0.5) * cos ((2.0 * i + 1.0) * j * TH); </tspan><tspan font-size="6" font-weight="bold" x="4.101525" y="1050.6642">ftmp2 = ftmp1; </tspan><tspan font-size="6" font-weight="bold" x="4.101525" y="1058.1642">/* The well known formula. The max absolute value for ftmp1 and ftmp2 is 0.5. */ </tspan><tspan font-size="6" font-weight="bold" x="4.101525" y="1065.6642">ftmp1 *= (1 &lt;&lt; NBC1);</tspan><tspan x="4.101525" y="1073.1642"/></text></a></svg>